<svg width="40" height="39" viewBox="0 0 40 39" fill="none" xmlns="http://www.w3.org/2000/svg">
<path d="M29.2159 23.344C29.2159 25.024 29.6939 25.694 30.9439 25.694C33.7299 25.694 35.5039 22.144 35.5039 16.24C35.5039 7.21599 28.9279 2.89599 20.7179 2.89599C12.2719 2.89599 4.5899 8.55999 4.5899 19.264C4.5899 29.488 11.3099 35.056 21.6299 35.056C25.1339 35.056 27.4859 34.672 31.0839 33.472L31.8559 36.686C28.3039 37.84 24.5079 38.174 21.5819 38.174C8.0459 38.174 0.795898 30.734 0.795898 19.262C0.795898 7.69399 9.1979 -0.178009 20.7659 -0.178009C32.8139 -0.178009 39.1959 7.02199 39.1959 15.854C39.1959 23.342 36.8459 29.054 29.4539 29.054C26.0919 29.054 23.8859 27.71 23.5979 24.732C22.7339 28.044 20.4299 29.054 17.3079 29.054C13.1319 29.054 9.6279 25.836 9.6279 19.358C9.6279 12.83 12.7019 8.79799 18.2219 8.79799C21.1499 8.79799 22.9739 9.94999 23.7859 11.774L25.1799 9.22999H29.2119V23.344H29.2159ZM23.3139 17.008C23.3139 14.37 21.3439 13.264 19.7119 13.264C17.9359 13.264 15.9699 14.702 15.9699 18.928C15.9699 22.288 17.4579 24.16 19.7119 24.16C21.2959 24.16 23.3139 23.152 23.3139 20.368V17.008Z" fill="#FF8A00"/>
</svg>
