<svg width="34" height="34" viewBox="0 0 34 34" fill="none" xmlns="http://www.w3.org/2000/svg">
<path d="M18.3332 10C19.6593 10 20.931 10.5268 21.8687 11.4645C22.8064 12.4022 23.3332 13.6739 23.3332 15C23.3332 15.442 23.5088 15.866 23.8213 16.1785C24.1339 16.4911 24.5578 16.6667 24.9998 16.6667C25.4419 16.6667 25.8658 16.4911 26.1783 16.1785C26.4909 15.866 26.6665 15.442 26.6665 15C26.6665 12.7899 25.7885 10.6703 24.2257 9.10745C22.6629 7.54465 20.5433 6.66667 18.3332 6.66667C17.8911 6.66667 17.4672 6.84227 17.1547 7.15483C16.8421 7.46739 16.6665 7.89131 16.6665 8.33334C16.6665 8.77537 16.8421 9.19929 17.1547 9.51185C17.4672 9.82441 17.8911 10 18.3332 10Z" fill="#FF8A00"/>
<path d="M18.3333 3.33333C21.4275 3.33333 24.395 4.5625 26.5829 6.75042C28.7708 8.93835 30 11.9058 30 15C30 15.442 30.1756 15.866 30.4882 16.1785C30.8007 16.4911 31.2246 16.6667 31.6667 16.6667C32.1087 16.6667 32.5326 16.4911 32.8452 16.1785C33.1577 15.866 33.3333 15.442 33.3333 15C33.3333 11.0218 31.753 7.20645 28.9399 4.3934C26.1269 1.58035 22.3116 0 18.3333 0C17.8913 0 17.4674 0.175595 17.1548 0.488155C16.8423 0.800716 16.6667 1.22464 16.6667 1.66667C16.6667 2.10869 16.8423 2.53262 17.1548 2.84518C17.4674 3.15774 17.8913 3.33333 18.3333 3.33333ZM32.9167 23.1833C32.825 22.9158 32.6668 22.676 32.4568 22.4864C32.2469 22.2969 31.9922 22.1639 31.7167 22.1L21.7167 19.8167C21.4452 19.7551 21.1627 19.7625 20.8949 19.8382C20.627 19.9139 20.3824 20.0555 20.1833 20.25C19.95 20.4667 19.9333 20.4833 18.85 22.55C15.2553 20.8936 12.375 18.0014 10.7333 14.4C12.85 13.3333 12.8667 13.3333 13.0833 13.0833C13.2779 12.8843 13.4194 12.6396 13.4951 12.3718C13.5708 12.104 13.5782 11.8214 13.5167 11.55L11.2333 1.66667C11.1694 1.39116 11.0364 1.13645 10.8469 0.92652C10.6574 0.716587 10.4176 0.558337 10.15 0.466667C9.76078 0.327649 9.35885 0.227167 8.95 0.166667C8.52875 0.068992 8.09889 0.0131656 7.66667 0C5.63334 0 3.68329 0.807736 2.24552 2.24552C0.807736 3.68329 0 5.63334 0 7.66667C0.00881986 14.4712 2.71581 20.9945 7.52733 25.806C12.3389 30.6175 18.8622 33.3245 25.6667 33.3333C26.6735 33.3333 27.6704 33.135 28.6006 32.7498C29.5307 32.3645 30.3759 31.7997 31.0878 31.0878C31.7997 30.3759 32.3645 29.5307 32.7497 28.6006C33.135 27.6704 33.3333 26.6735 33.3333 25.6667C33.3339 25.2425 33.3004 24.8189 33.2333 24.4C33.1633 23.986 33.0573 23.5789 32.9167 23.1833ZM25.6667 30C19.7449 29.9956 14.0668 27.6412 9.87949 23.4538C5.69214 19.2665 3.33775 13.5885 3.33333 7.66667C3.33772 6.51875 3.79568 5.4191 4.60739 4.60739C5.4191 3.79568 6.51875 3.33772 7.66667 3.33333H8.21667L10 11.0667L9.1 11.5333C7.66667 12.2833 6.53333 12.8833 7.13333 14.1833C8.11037 16.9493 9.69129 19.4629 11.7612 21.5415C13.8312 23.6201 16.3381 25.2114 19.1 26.2C20.5 26.7667 21.05 25.7167 21.8 24.2667L22.2833 23.35L30 25.1167V25.6667C29.9956 26.8146 29.5377 27.9142 28.7259 28.726C27.9142 29.5377 26.8146 29.9956 25.6667 30Z" fill="#FF8A00"/>
</svg>
