<svg width="40" height="40" viewBox="0 0 40 40" fill="none" xmlns="http://www.w3.org/2000/svg">
<path d="M36.9141 16.0937H26.9141C26.7422 16.0937 26.6016 16.2344 26.6016 16.4062V18.2812C26.6016 18.4531 26.7422 18.5937 26.9141 18.5937H36.9141C37.0859 18.5937 37.2266 18.4531 37.2266 18.2812V16.4062C37.2266 16.2344 37.0859 16.0937 36.9141 16.0937ZM31.6797 21.4062H26.9141C26.7422 21.4062 26.6016 21.5469 26.6016 21.7187V23.5937C26.6016 23.7656 26.7422 23.9062 26.9141 23.9062H31.6797C31.8516 23.9062 31.9922 23.7656 31.9922 23.5937V21.7187C31.9922 21.5469 31.8516 21.4062 31.6797 21.4062ZM18.6445 12.5977H16.9531C16.7109 12.5977 16.5156 12.793 16.5156 13.0352V22.7226C16.5156 22.8633 16.582 22.9922 16.6953 23.0742L22.5117 27.3164C22.707 27.457 22.9805 27.418 23.1211 27.2226L24.125 25.8516V25.8476C24.2656 25.6523 24.2227 25.3789 24.0273 25.2383L19.0781 21.6602V13.0352C19.082 12.793 18.8828 12.5977 18.6445 12.5977Z" fill="#FF8A00"/>
<path d="M31.4375 26.3242H29.1797C28.961 26.3242 28.7539 26.4375 28.6367 26.625C28.1407 27.4101 27.5625 28.1367 26.8985 28.8008C25.7539 29.9453 24.4219 30.8437 22.9414 31.4687C21.4063 32.1172 19.7774 32.4453 18.0977 32.4453C16.4141 32.4453 14.7852 32.1172 13.2539 31.4687C11.7735 30.8437 10.4414 29.9453 9.2969 28.8008C8.15237 27.6562 7.25393 26.3242 6.62893 24.8437C5.9805 23.3125 5.65237 21.6836 5.65237 20C5.65237 18.3164 5.9805 16.6914 6.62893 15.1562C7.25393 13.6758 8.15237 12.3437 9.2969 11.1992C10.4414 10.0547 11.7735 9.15622 13.2539 8.53122C14.7852 7.88278 16.418 7.55466 18.0977 7.55466C19.7813 7.55466 21.4102 7.88278 22.9414 8.53122C24.4219 9.15622 25.7539 10.0547 26.8985 11.1992C27.5625 11.8633 28.1407 12.5898 28.6367 13.375C28.7539 13.5625 28.961 13.6758 29.1797 13.6758H31.4375C31.7071 13.6758 31.8789 13.3945 31.7578 13.1562C29.211 8.08981 24.0469 4.79685 18.2813 4.73044C9.83987 4.62497 2.82815 11.5351 2.81253 19.9687C2.7969 28.4179 9.64456 35.2734 18.0938 35.2734C23.9336 35.2734 29.1836 31.9687 31.7578 26.8437C31.8789 26.6054 31.7032 26.3242 31.4375 26.3242Z" fill="#FF8A00"/>
</svg>
