<svg width="31" height="32" viewBox="0 0 31 32" fill="none" xmlns="http://www.w3.org/2000/svg">
<path fill-rule="evenodd" clip-rule="evenodd" d="M15.5 32C19.6109 32 23.5533 30.3143 26.4602 27.3137C29.367 24.3131 31 20.2435 31 16C31 11.7565 29.367 7.68687 26.4602 4.68629C23.5533 1.68571 19.6109 0 15.5 0C11.3891 0 7.44666 1.68571 4.53984 4.68629C1.63303 7.68687 0 11.7565 0 16C0 20.2435 1.63303 24.3131 4.53984 27.3137C7.44666 30.3143 11.3891 32 15.5 32ZM17.3019 13.176L12.865 13.75L12.7061 14.51L13.578 14.676C14.1476 14.816 14.26 15.028 14.136 15.614L12.7061 22.55C12.3302 24.344 12.9096 25.188 14.2716 25.188C15.3276 25.188 16.554 24.684 17.1101 23.992L17.2806 23.16C16.8931 23.512 16.3273 23.652 15.9514 23.652C15.4186 23.652 15.2249 23.266 15.3624 22.586L17.3019 13.176ZM15.5 11C16.0139 11 16.5067 10.7893 16.87 10.4142C17.2334 10.0391 17.4375 9.53043 17.4375 9C17.4375 8.46957 17.2334 7.96086 16.87 7.58579C16.5067 7.21071 16.0139 7 15.5 7C14.9861 7 14.4933 7.21071 14.13 7.58579C13.7666 7.96086 13.5625 8.46957 13.5625 9C13.5625 9.53043 13.7666 10.0391 14.13 10.4142C14.4933 10.7893 14.9861 11 15.5 11Z" fill="#FF8A00"/>
</svg>
