<svg width="27" height="25" viewBox="0 0 27 25" fill="none" xmlns="http://www.w3.org/2000/svg">
<path d="M26.4167 9.97341V24.6667H0.583333V3.33341H16.2125C16.135 3.76008 16.0833 4.21341 16.0833 4.66675C16.0833 6.64008 16.9229 8.38675 18.2404 9.61341L13.5 12.6667L3.16667 6.00008V8.66675L13.5 15.3334L20.3458 10.9067C21.0433 11.1734 21.7667 11.3334 22.5417 11.3334C24.0013 11.3334 25.3317 10.8134 26.4167 9.97341ZM18.6667 4.66675C18.6667 6.88008 20.3975 8.66675 22.5417 8.66675C24.6858 8.66675 26.4167 6.88008 26.4167 4.66675C26.4167 2.45341 24.6858 0.666748 22.5417 0.666748C20.3975 0.666748 18.6667 2.45341 18.6667 4.66675Z" fill="white"/>
</svg>
