<svg width="24" height="25" viewBox="0 0 24 25" fill="none" xmlns="http://www.w3.org/2000/svg">
<path fill-rule="evenodd" clip-rule="evenodd" d="M8.03111 7.99844L11.3071 1.2375C11.37 1.10149 11.4683 0.986615 11.5909 0.905953C11.7134 0.825291 11.8552 0.782083 12.0001 0.78125C12.2746 0.78125 12.5491 0.932813 12.6976 1.2375L15.9736 7.99844L23.3206 9.08594C23.5037 9.11593 23.6713 9.2108 23.7951 9.35454C23.9189 9.49829 23.9913 9.68211 24.0001 9.875C24.0104 10.0034 23.9928 10.1326 23.9486 10.2529C23.9045 10.3733 23.8349 10.4817 23.7451 10.5703L18.4606 15.8141L19.7056 23.2047C19.8226 23.8969 19.1656 24.4391 18.5866 24.1297L12.0001 20.6047L5.41661 24.1297C5.34775 24.167 5.27394 24.1933 5.19761 24.2078C4.68611 24.3016 4.19561 23.8109 4.29761 23.2047L5.54261 15.8141L0.259609 10.5703C0.177749 10.4892 0.112744 10.3915 0.0686228 10.2832C0.0245013 10.1749 0.00220272 10.0583 0.00310882 9.94063C0.00349385 9.77438 0.0470305 9.61133 0.129109 9.46875C0.188207 9.36573 0.268757 9.27785 0.364816 9.2116C0.460874 9.14534 0.569989 9.1024 0.684109 9.08594L8.03111 7.99844ZM12.0001 18.7922C12.1201 18.7922 12.2401 18.8203 12.3481 18.8797L17.8771 21.8391L16.8361 15.6563C16.8116 15.5139 16.8211 15.3675 16.8637 15.2299C16.9063 15.0923 16.9808 14.9677 17.0806 14.8672L21.4396 10.5391L15.3616 9.63906C15.2357 9.61926 15.1164 9.56798 15.0137 9.48961C14.911 9.41124 14.8281 9.30811 14.7721 9.18906L12.0031 3.47344L12.0001 3.47813V18.7906V18.7922Z" fill="#FF8A00"/>
</svg>
