<svg width="31" height="32" viewBox="0 0 31 32" fill="none" xmlns="http://www.w3.org/2000/svg">
<path d="M20.15 15.9999C20.15 17.2729 19.6601 18.4938 18.788 19.394C17.916 20.2942 16.7333 20.7999 15.5 20.7999C14.2667 20.7999 13.084 20.2942 12.212 19.394C11.3399 18.4938 10.85 17.2729 10.85 15.9999C10.85 15.7263 10.8779 15.4591 10.9259 15.1999H9.3V21.5951C9.3 22.0399 9.64875 22.3999 10.0796 22.3999H20.9219C21.1284 22.3995 21.3263 22.3145 21.4722 22.1636C21.6181 22.0127 21.7 21.8083 21.7 21.5951V15.1999H20.0741C20.1221 15.4591 20.15 15.7263 20.15 15.9999ZM15.5 19.1999C15.9072 19.1998 16.3104 19.1169 16.6866 18.9559C17.0627 18.795 17.4045 18.5591 17.6924 18.2618C17.9802 17.9645 18.2085 17.6116 18.3643 17.2232C18.52 16.8349 18.6001 16.4186 18.6 15.9983C18.5999 15.578 18.5196 15.1618 18.3637 14.7735C18.2077 14.3852 17.9793 14.0324 17.6913 13.7352C17.4032 13.4381 17.0614 13.2024 16.6851 13.0416C16.3089 12.8809 15.9056 12.7982 15.4984 12.7983C14.6761 12.7985 13.8875 13.1359 13.3061 13.7364C12.7247 14.3368 12.3982 15.151 12.3984 15.9999C12.3987 16.8488 12.7255 17.6629 13.3072 18.263C13.8888 18.8631 14.6776 19.2001 15.5 19.1999ZM19.22 12.6399H21.0785C21.2019 12.6399 21.3204 12.5894 21.4078 12.4994C21.4953 12.4094 21.5446 12.2873 21.545 12.1599V10.2415C21.545 10.1138 21.4958 9.99127 21.4084 9.90095C21.3209 9.81063 21.2022 9.75989 21.0785 9.75989H19.22C19.0963 9.75989 18.9776 9.81063 18.8901 9.90095C18.8026 9.99127 18.7535 10.1138 18.7535 10.2415V12.1599C18.755 12.4239 18.9643 12.6399 19.22 12.6399ZM15.5 0.639893C11.5536 0.639893 7.76879 2.25817 4.97825 5.13873C2.18771 8.01929 0.619999 11.9262 0.619999 15.9999C0.619999 20.0736 2.18771 23.9805 4.97825 26.8611C7.76879 29.7416 11.5536 31.3599 15.5 31.3599C17.4541 31.3599 19.389 30.9626 21.1943 30.1907C22.9997 29.4188 24.64 28.2874 26.0217 26.8611C27.4035 25.4347 28.4995 23.7415 29.2473 21.8779C29.9951 20.0144 30.38 18.017 30.38 15.9999C30.38 13.9828 29.9951 11.9854 29.2473 10.1219C28.4995 8.25832 27.4035 6.56504 26.0217 5.13873C24.64 3.71242 22.9997 2.58102 21.1943 1.8091C19.389 1.03719 17.4541 0.639893 15.5 0.639893ZM23.25 22.2223C23.25 23.1999 22.475 23.9999 21.528 23.9999H9.47205C8.525 23.9999 7.75 23.1999 7.75 22.2223V9.77749C7.75 8.79989 8.525 7.99989 9.47205 7.99989H21.528C22.475 7.99989 23.25 8.79989 23.25 9.77749V22.2223Z" fill="white"/>
</svg>
