<svg width="31" height="32" viewBox="0 0 31 32" fill="none" xmlns="http://www.w3.org/2000/svg">
<path d="M30.0189 28.9632L27.9 22.4H25.575L26.8661 28.8H4.13385L5.425 22.4H3.1L0.979599 28.9632C0.441749 30.6336 1.395 32 3.1 32H27.9C29.605 32 30.5583 30.6336 30.0189 28.9632ZM23.25 8C23.25 5.87827 22.4335 3.84344 20.9801 2.34315C19.5267 0.842855 17.5554 0 15.5 0C13.4446 0 11.4733 0.842855 10.0199 2.34315C8.56651 3.84344 7.75 5.87827 7.75 8C7.75 15.64 15.5 24 15.5 24C15.5 24 23.25 15.64 23.25 8ZM11.315 8.096C11.315 5.7104 13.1874 3.7776 15.5 3.7776C16.6097 3.7776 17.674 4.23266 18.4587 5.04266C19.2434 5.85267 19.6842 6.95128 19.6842 8.0968C19.6842 9.24232 19.2434 10.3409 18.4587 11.1509C17.674 11.9609 16.6097 12.416 15.5 12.416C14.3901 12.416 13.3256 11.9609 12.5408 11.1507C11.7559 10.3405 11.315 9.24174 11.315 8.096Z" fill="#FF8A00"/>
</svg>
