<svg width="31" height="32" viewBox="0 0 31 32" fill="none" xmlns="http://www.w3.org/2000/svg">
<path d="M1.9375 22H29.0625V24H1.9375V22Z" fill="#FF8A00"/>
<path d="M1.9375 26H29.0625V28H1.9375V26Z" fill="#FF8A00"/>
<path d="M23.25 10C22.8668 10 22.4922 10.1173 22.1736 10.3371C21.855 10.5568 21.6066 10.8692 21.46 11.2346C21.3133 11.6001 21.275 12.0022 21.3497 12.3902C21.4245 12.7781 21.609 13.1345 21.88 13.4142C22.1509 13.6939 22.4962 13.8844 22.872 13.9616C23.2479 14.0387 23.6374 13.9991 23.9915 13.8478C24.3455 13.6964 24.6481 13.44 24.861 13.1111C25.0739 12.7822 25.1875 12.3956 25.1875 12C25.1875 11.4696 24.9834 10.9609 24.62 10.5858C24.2567 10.2107 23.7639 10 23.25 10Z" fill="#FF8A00"/>
<path d="M15.5 16C14.7336 16 13.9844 15.7654 13.3472 15.3259C12.7099 14.8864 12.2133 14.2616 11.92 13.5307C11.6267 12.7998 11.5499 11.9956 11.6995 11.2196C11.849 10.4437 12.218 9.73098 12.76 9.17157C13.3019 8.61216 13.9924 8.2312 14.744 8.07686C15.4957 7.92252 16.2748 8.00173 16.9829 8.30448C17.691 8.60723 18.2962 9.11993 18.7219 9.77772C19.1477 10.4355 19.375 11.2089 19.375 12C19.3737 13.0605 18.9651 14.0771 18.2386 14.827C17.5122 15.5768 16.5273 15.9987 15.5 16ZM15.5 10C15.1168 10 14.7422 10.1173 14.4236 10.3371C14.105 10.5568 13.8566 10.8692 13.71 11.2346C13.5633 11.6001 13.525 12.0022 13.5997 12.3902C13.6745 12.7781 13.859 13.1345 14.13 13.4142C14.4009 13.6939 14.7462 13.8844 15.122 13.9616C15.4979 14.0387 15.8874 13.9991 16.2415 13.8478C16.5955 13.6964 16.8981 13.44 17.111 13.1111C17.3239 12.7822 17.4375 12.3956 17.4375 12C17.437 11.4697 17.2327 10.9613 16.8695 10.5864C16.5062 10.2114 16.0137 10.0005 15.5 10Z" fill="#FF8A00"/>
<path d="M7.75 10C7.3668 10 6.9922 10.1173 6.67358 10.3371C6.35496 10.5568 6.10663 10.8692 5.95998 11.2346C5.81334 11.6001 5.77497 12.0022 5.84973 12.3902C5.92449 12.7781 6.10902 13.1345 6.37998 13.4142C6.65095 13.6939 6.99618 13.8844 7.37201 13.9616C7.74785 14.0387 8.13742 13.9991 8.49145 13.8478C8.84548 13.6964 9.14808 13.44 9.36097 13.1111C9.57387 12.7822 9.6875 12.3956 9.6875 12C9.6875 11.4696 9.48337 10.9609 9.12002 10.5858C8.75667 10.2107 8.26386 10 7.75 10Z" fill="#FF8A00"/>
<path d="M27.125 20H3.875C3.36154 19.9987 2.86947 19.7875 2.50639 19.4128C2.14332 19.038 1.93878 18.53 1.9375 18V6C1.93878 5.46997 2.14332 4.96203 2.50639 4.58724C2.86947 4.21246 3.36154 4.00132 3.875 4H27.125C27.6385 4.00132 28.1305 4.21246 28.4936 4.58724C28.8567 4.96203 29.0612 5.46997 29.0625 6V18C29.0617 18.5302 28.8574 19.0384 28.4942 19.4133C28.131 19.7882 27.6386 19.9992 27.125 20ZM27.125 6H3.875V18H27.125V6Z" fill="#FF8A00"/>
</svg>

