<svg width="31" height="32" viewBox="0 0 31 32" fill="none" xmlns="http://www.w3.org/2000/svg">
<path d="M15.5 0.639893C7.2819 0.639893 0.619995 7.51669 0.619995 15.9999C0.619995 24.4831 7.2819 31.3599 15.5 31.3599C23.7181 31.3599 30.38 24.4831 30.38 15.9999C30.38 7.51669 23.7181 0.639893 15.5 0.639893ZM21.5527 13.2223C21.5589 13.3535 21.5605 13.4847 21.5605 13.6127C21.5605 17.6127 18.6139 22.2223 13.223 22.2223C11.6301 22.225 10.0703 21.7528 8.73114 20.8623C8.95899 20.8911 9.19305 20.9023 9.4302 20.9023C10.8035 20.9023 12.0667 20.4207 13.0696 19.6079C12.4585 19.5955 11.8663 19.3866 11.3756 19.0103C10.8849 18.634 10.5202 18.1091 10.3323 17.5087C10.7712 17.5948 11.2233 17.5768 11.6544 17.4559C10.9911 17.3174 10.3946 16.9464 9.96604 16.4058C9.53748 15.8651 9.30326 15.1881 9.30309 14.4895V14.4527C9.69835 14.6783 10.1509 14.8159 10.6314 14.8319C10.0096 14.4046 9.56936 13.7482 9.40082 12.9969C9.23227 12.2456 9.34812 11.4563 9.7247 10.7903C10.4609 11.7247 11.3789 12.4891 12.4195 13.034C13.46 13.5789 14.5998 13.8922 15.765 13.9535C15.6169 13.3044 15.6807 12.6229 15.9464 12.0151C16.2122 11.4073 16.665 10.9071 17.2346 10.5923C17.8041 10.2776 18.4584 10.1659 19.0958 10.2746C19.7332 10.3833 20.318 10.7063 20.7591 11.1935C21.4151 11.0595 22.0441 10.8112 22.6191 10.4591C22.4005 11.1601 21.9428 11.7554 21.3311 12.1343C21.9121 12.0621 22.4794 11.9008 23.0144 11.6559C22.6215 12.2637 22.1265 12.7942 21.5527 13.2223Z" fill="white"/>
</svg>
